<svg width="35" height="32" viewBox="0 0 35 32" fill="none" xmlns="http://www.w3.org/2000/svg">
<path d="M8.22648 0.241699L27.2531 19.3929L30.6427 15.9811L32.8971 18.2503L28.9479 22.2253L34.0323 27.3431C34.6559 27.9707 34.6559 28.9846 34.0323 29.6122L32.8971 30.7549C32.7492 30.9041 32.5735 31.0224 32.3801 31.1032C32.1867 31.1839 31.9793 31.2255 31.7699 31.2255C31.5605 31.2255 31.3532 31.1839 31.1597 31.1032C30.9663 31.0224 30.7906 30.9041 30.6427 30.7549L25.4943 25.6533L21.5931 29.6283L19.3387 27.3592L22.7283 23.9473L3.70166 4.79614V0.241699H8.22648ZM23.7196 12.4083L31.2983 4.78005V0.241699H26.7734L19.1948 7.86999L23.7196 12.4083ZM15.8051 20.4551L11.2803 15.8363L7.74681 19.3929L4.3572 15.9811L2.10278 18.2503L6.05201 22.2253L0.967582 27.3592C0.81936 27.508 0.701767 27.6849 0.621533 27.8796C0.541299 28.0743 0.5 28.283 0.5 28.4937C0.5 28.7045 0.541299 28.9132 0.621533 29.1079C0.701767 29.3026 0.81936 29.4794 0.967582 29.6283L2.10278 30.771C2.72634 31.3986 3.73364 31.3986 4.3572 30.771L9.50558 25.6533L13.4068 29.6283L15.6613 27.3592L12.2716 23.9473L15.8051 20.4551Z" fill="#333333"/>
</svg>
