<svg width="22" height="20" viewBox="0 0 22 20" fill="none" xmlns="http://www.w3.org/2000/svg">
<path d="M10.83 6.495L14 9.65499V9.495C14 8.69935 13.6839 7.93628 13.1213 7.37367C12.5587 6.81107 11.7956 6.495 11 6.495H10.83ZM6.53 7.295L8.08 8.845C8.03 9.055 8 9.265 8 9.495C8 10.2906 8.31607 11.0537 8.87868 11.6163C9.44129 12.1789 10.2044 12.495 11 12.495C11.22 12.495 11.44 12.465 11.65 12.415L13.2 13.965C12.53 14.295 11.79 14.495 11 14.495C9.67392 14.495 8.40215 13.9682 7.46447 13.0305C6.52678 12.0928 6 10.8211 6 9.495C6 8.705 6.2 7.965 6.53 7.295ZM1 1.765L3.28 4.045L3.73 4.495C2.08 5.795 0.78 7.495 0 9.495C1.73 13.885 6 16.995 11 16.995C12.55 16.995 14.03 16.695 15.38 16.155L15.81 16.575L18.73 19.495L20 18.225L2.27 0.494995M11 4.495C12.3261 4.495 13.5979 5.02178 14.5355 5.95946C15.4732 6.89714 16 8.16891 16 9.495C16 10.135 15.87 10.755 15.64 11.315L18.57 14.245C20.07 12.995 21.27 11.355 22 9.495C20.27 5.105 16 1.995 11 1.995C9.6 1.995 8.26 2.24499 7 2.69499L9.17 4.845C9.74 4.625 10.35 4.495 11 4.495Z" fill="#333333"/>
</svg>
