<svg width="23" height="16" viewBox="0 0 23 16" fill="none" xmlns="http://www.w3.org/2000/svg">
<path d="M11.5 0.241699C6.5 0.241699 2.23 3.3517 0.5 7.7417C2.23 12.1317 6.5 15.2417 11.5 15.2417C16.5 15.2417 20.77 12.1317 22.5 7.7417C20.77 3.3517 16.5 0.241699 11.5 0.241699ZM11.5 12.7417C8.74 12.7417 6.5 10.5017 6.5 7.7417C6.5 4.9817 8.74 2.7417 11.5 2.7417C14.26 2.7417 16.5 4.9817 16.5 7.7417C16.5 10.5017 14.26 12.7417 11.5 12.7417ZM11.5 4.7417C9.84 4.7417 8.5 6.0817 8.5 7.7417C8.5 9.4017 9.84 10.7417 11.5 10.7417C13.16 10.7417 14.5 9.4017 14.5 7.7417C14.5 6.0817 13.16 4.7417 11.5 4.7417Z" fill="#333333"/>
</svg>
